<svg  version="1.1" id="Layer_1" xmlns="http://www.w3.org/2000/svg" xmlns:xlink="http://www.w3.org/1999/xlink" x="0px" y="0px" viewBox="-47.239 131.662 322.41 291.51" style="enable-background:new 0 0 992.13 425.2;" xml:space="preserve">
  <g transform="matrix(1, 0, 0, 1, -96.147209, 46.198887)">
    <polygon class="st1" points="299.5,350.09 306.05,364.72 308.31,372.96 321.02,375.92 322.5,371.51 327.07,374.59 327.7,372.25 
		330.68,367.07 331.79,352.99 317.48,354.34 	" style="fill: rgb(255, 255, 255);"></polygon>
    <path class="st1" d="M353.33,187.11c0,0-6.07,2.3-8.85,0.15c-2.77-2.16-6.44-20.07-6.44-20.07l-8.97-4.37l-3.54-2.91l-19.83-45.82
		l-5.56,1.89l-1.77-13.09l-7.7-18.48L281,106.45c0,0-5.57,38.42-8.76,38.62c-3.19,0.2-34.11-20.25-35.23-23.86
		c-1.13-3.61,11.62-22.55,11.62-22.55l-21.36-1.89l-5.05-2.32l-11.49-6.26l5.3,8.58l-12.74-0.15l-8.97,11.64
		c0,0,2.06,11.54-1.39,13.67c-3.46,2.13-8.71-2.62-8.71-2.62l-2.15-0.43l-5.94-6.69l-10.6-0.44l-4.43,10.62l-4.66,0.14l3.28,3.93
		l-12.38,4.8l1.14,15.27l-6.32-13.24l-5.81,7.43l1.52,7.56l-6.04,3.72l-0.31,0.19c-8.04-4.92-17.51-7.77-27.63-7.77
		c-29.27,0-52.99,23.73-52.99,52.99c0,19.04,10.05,35.73,25.13,45.07c-0.06-0.22-0.13-0.43-0.19-0.65
		c-0.17-0.58-0.33-1.16-0.49-1.74c-1.22-4.47-2.19-8.87-2.78-13.49c-0.78-6.07-0.52-11.28,0.53-15.82
		c2.54-10.97,9.78-17.91,18.73-23.01c5.3-3.02,11.18-5.4,17.04-7.58c2.98-1.11,5.95-2.17,8.83-3.24l0.04-0.02
		c2.78-1.03,5.02-2.41,6.83-3.99c6.32-5.51,7.34-13.67,7.01-19.78c-0.02-0.32-0.03-0.63-0.05-0.94c0.01,0.01,0.02,0.01,0.03,0.02
		c0.55,0.34,1.09,0.69,1.63,1.05c0.25,0.17,0.5,0.33,0.74,0.5c0.41,0.28,0.82,0.57,1.22,0.87c0.26,0.19,0.52,0.38,0.77,0.57
		c0.45,0.34,0.9,0.7,1.34,1.06c0.23,0.18,0.45,0.37,0.68,0.56c0.42,0.35,0.83,0.71,1.23,1.07c0.23,0.21,0.46,0.41,0.68,0.62
		c0.4,0.37,0.8,0.75,1.18,1.13c0.2,0.2,0.4,0.4,0.6,0.6c0.44,0.45,0.87,0.9,1.3,1.36c0.16,0.18,0.32,0.36,0.48,0.54
		c0.36,0.41,0.72,0.82,1.07,1.23c0.17,0.2,0.34,0.4,0.5,0.61c0.43,0.53,0.85,1.06,1.26,1.61c0.12,0.16,0.24,0.33,0.36,0.49
		c0.33,0.45,0.65,0.9,0.96,1.36c0.14,0.2,0.27,0.4,0.41,0.6c0.39,0.58,0.76,1.16,1.13,1.76c0.1,0.17,0.2,0.34,0.31,0.51
		c0.29,0.49,0.58,0.99,0.86,1.49c0.1,0.19,0.21,0.38,0.31,0.56c0.34,0.63,0.66,1.26,0.98,1.91c0.08,0.17,0.17,0.35,0.25,0.53
		c0.26,0.54,0.51,1.09,0.74,1.65c0.07,0.17,0.15,0.34,0.22,0.51c0.28,0.67,0.55,1.35,0.8,2.04c0.07,0.18,0.13,0.36,0.19,0.54
		c0.21,0.6,0.42,1.2,0.61,1.81c0.05,0.15,0.1,0.29,0.14,0.44c0.22,0.71,0.42,1.44,0.61,2.16c0.05,0.18,0.09,0.37,0.14,0.56
		c0.16,0.66,0.32,1.31,0.46,1.98c0.02,0.11,0.05,0.22,0.07,0.34c0.15,0.75,0.29,1.51,0.41,2.27c0.03,0.19,0.06,0.38,0.08,0.57
		c0.11,0.72,0.2,1.45,0.28,2.17c0.01,0.07,0.02,0.14,0.02,0.2c0.08,0.78,0.14,1.58,0.18,2.37c0.01,0.19,0.02,0.39,0.03,0.58
		c0.04,0.8,0.06,1.61,0.06,2.43c0,0,0,0,0,0c0,0.82-0.02,1.64-0.06,2.46c-0.01,0.24-0.03,0.49-0.04,0.73
		c-0.04,0.59-0.08,1.18-0.13,1.77c-0.02,0.25-0.04,0.5-0.07,0.75c-0.08,0.73-0.17,1.45-0.28,2.17c-0.01,0.07-0.02,0.15-0.03,0.22
		c-0.12,0.78-0.26,1.55-0.41,2.31c-0.05,0.25-0.11,0.51-0.16,0.76c-0.11,0.53-0.24,1.06-0.37,1.58c-0.07,0.27-0.13,0.54-0.21,0.82
		c-0.15,0.58-0.32,1.16-0.49,1.74c-0.05,0.18-0.1,0.36-0.16,0.53c-0.22,0.7-0.46,1.4-0.71,2.08c-0.11,0.3-0.22,0.59-0.33,0.89
		c-0.16,0.42-0.33,0.84-0.5,1.26c-0.13,0.32-0.26,0.64-0.4,0.96c-0.18,0.41-0.36,0.81-0.55,1.21c-0.22,0.47-0.44,0.94-0.67,1.4
		c-0.21,0.43-0.43,0.86-0.66,1.28c-0.2,0.37-0.4,0.73-0.61,1.09c-0.16,0.28-0.32,0.56-0.48,0.83c-0.23,0.38-0.45,0.76-0.69,1.14
		c-0.14,0.22-0.28,0.44-0.42,0.65c-0.89,1.38-1.84,2.71-2.84,4c-0.1,0.13-0.2,0.25-0.3,0.38c-0.35,0.43-0.7,0.86-1.06,1.29
		c-0.05,0.06-0.11,0.12-0.16,0.18c-5.38,6.27-12.21,11.26-19.96,14.47l0.06-25.56h22.96v-11.4h-23.05v-16.51h26.87v-11.29h-38.99
		l0.02,68.18c-1.65,0.22-4.06,0.48-6.36,0.58c-0.59,0.02-1.17,0.04-1.77,0.04c-0.82,0-1.64-0.02-2.45-0.06
		c-0.2-0.01-0.41-0.02-0.61-0.03c-0.69-0.04-1.37-0.09-2.05-0.16c-0.13-0.01-0.27-0.02-0.4-0.04c-0.78-0.08-1.56-0.18-2.33-0.3
		c-0.21-0.03-0.43-0.07-0.64-0.1c-0.59-0.09-1.17-0.2-1.75-0.31c-0.23-0.04-0.46-0.09-0.68-0.13c-0.72-0.15-1.44-0.32-2.15-0.5
		c-0.24-0.06-0.47-0.13-0.7-0.19c-0.5-0.13-1-0.28-1.49-0.42c-0.3-0.09-0.59-0.18-0.89-0.27c-0.51-0.16-1.01-0.34-1.52-0.51
		c-0.41-0.15-0.82-0.3-1.23-0.45c-0.42-0.16-0.84-0.32-1.25-0.49c-0.35-0.14-0.69-0.29-1.03-0.44c-0.34-0.15-0.67-0.3-1-0.45
		c-0.57-0.26-1.14-0.54-1.7-0.82c-0.32-0.16-0.64-0.32-0.96-0.49c-0.38-0.2-0.75-0.41-1.12-0.62c-0.25-0.14-0.5-0.28-0.75-0.43
		c-0.38-0.22-0.76-0.44-1.13-0.68l0,0c0.25,0.85,0.49,1.7,0.76,2.57c4.71,14.42,9.7,30.24,10.48,34.79l0.01,0.03l0,0.03
		c0.1,0.59,0.12,0.99,0.06,1.16c-0.97,2.6-5.69,3.64-5.69,3.64l11.49,11.49c0,0,34.74-15.06,37.4-14.64
		c2.66,0.41,5.16,5.48,5.16,5.48s61.23-23.59,69.1-21.82c7.86,1.77,29.55,27.2,29.55,27.2l5.68,0.43l14.53-18.62l-5.93,20.95
		l5.68,1.88l2.66-8.58l3.54,5.53l-3.41,7.56l6.06-1.31l18.57,25.32l12.36,2.52l12.52-3.1l13.14,7.12h3.34l-0.7-2.42l9.1-8.34
		l15.54-3.78l15.11-41.17l2.78-2.62l8.37-62.56l-19.45-15.71L353.33,187.11z M240.42,250.42l-5.76-41.7l-20.61,41.7h-4.2
		l-20.88-42.05l-5.73,42.05h-10.43l9.9-69.15h4.1l25.17,50.8l24.93-50.8H241l9.95,69.15H240.42z M340.12,217.2
		c-0.03,5.25-0.84,10.03-2.41,14.23c-1.59,4.25-3.99,8-7.14,11.15c-3.15,3.16-6.89,5.55-11.1,7.12c-4.17,1.56-8.91,2.35-14.08,2.35
		c-6.27,0-11.98-1.09-16.97-3.24c-5.03-2.16-9.46-5.45-13.15-9.77c-2.84-3.33-5.01-6.97-6.43-10.83c-1.43-3.85-2.15-8.02-2.15-12.39
		c0-6.52,1.66-12.65,4.92-18.24c3.27-5.61,7.82-10.05,13.51-13.21c5.67-3.15,12.16-4.75,19.29-4.75c5.77,0,11.27,1.06,16.36,3.14
		c5.08,2.08,10.08,5.44,14.87,9.99l1.57,1.49l-8.04,7.62l-1.41-1.39c-3.43-3.37-7.23-5.96-11.29-7.69c-4.05-1.72-8.03-2.6-11.82-2.6
		c-4.8,0-9.24,1.15-13.6,3.51c-4.32,2.35-7.57,5.44-9.94,9.44c-2.36,4-3.51,8.11-3.52,12.56c0,4.56,1.19,8.78,3.65,12.91
		c2.46,4.12,5.76,7.28,10.1,9.64c4.36,2.37,9.02,3.53,14.24,3.53c6.27-0.01,11.4-1.71,15.69-5.2c2.13-1.74,3.78-3.67,5.04-5.91
		c0.97-1.73,1.68-3.66,2.13-5.73l-20.44-0.11v-9.67h32.15L340.12,217.2z" style="fill: rgb(255, 255, 255);"></path>
  </g>
</svg>