<?xml version="1.0" encoding="UTF-8"?>
<svg id="Layer_6" data-name="Layer 6" xmlns="http://www.w3.org/2000/svg" viewBox="0 0 385 391.15">
  <defs>
    <style>
      .cls-1 {
        fill: none;
      }

      .cls-2 {
        fill: #b3b4b4;
      }

      .cls-3 {
        fill: #122949;
      }

      .cls-4 {
        fill: #4e8fcc;
      }
    </style>
  </defs>
  <polygon class="cls-1" points="370 324.76 370 226.61 285 177.54 200 226.61 200 324.76 215 333.42 215 316.1 215 235.27 285 194.86 355 235.27 355 316.1 285 356.51 215 316.1 215 333.42 285 373.83 370 324.76"/>
  <polygon class="cls-1" points="200 324.76 215 333.42 285 373.83 370 324.76 370 226.61 285 177.54 200 226.61 215 235.27 200 226.61 200 226.61 200 324.76"/>
  <polygon class="cls-1" points="85 186.2 170 235.27 185 226.61 100 177.54 85 186.2"/>
  <polygon class="cls-1" points="170 316.1 100 356.51 30 316.1 30 235.27 100 194.86 170 235.27 85 186.2 15 226.61 15 324.76 100 373.83 185 324.76 185 226.61 185 226.61 170 235.27 170 316.1"/>
  <polygon class="cls-1" points="192.5 17.32 107.5 66.4 107.5 164.54 192.5 213.62 192.5 196.3 122.5 155.88 122.5 75.06 192.5 34.64 262.5 75.06 262.5 155.88 277.5 147.22 277.5 66.4 192.5 17.32"/>
  <g>
    <polygon class="cls-3" points="200 217.95 192.5 222.28 192.5 239.24 192.5 222.28 185 226.61 185 226.61 185 324.76 100 373.83 15 324.76 15 226.61 77.5 190.53 77.5 181.87 70 177.54 0 217.95 0 333.42 100 391.15 200 333.42 200 217.95 200 217.95"/>
    <polygon class="cls-3" points="85 186.2 77.5 181.87 77.5 190.53 85 186.2"/>
    <polygon class="cls-3" points="70 177.54 77.5 173.21 77.5 181.87 70 177.54"/>
  </g>
  <g>
    <polygon class="cls-2" points="215 333.42 215 342.08 222.5 337.75 215 333.42"/>
    <polygon class="cls-2" points="285 160.21 185 217.95 200 226.61 285 177.54 370 226.61 370 324.76 285 373.83 222.5 337.75 215 342.08 215 350.74 285 391.15 385 333.42 385 217.95 285 160.21"/>
    <polygon class="cls-2" points="215 342.08 215 350.74 207.5 346.41 215 342.08"/>
  </g>
  <g>
    <polygon class="cls-4" points="277.5 147.22 285 142.89 277.5 138.56 277.5 147.22"/>
    <polygon class="cls-4" points="292.5 57.74 192.5 0 92.5 57.73 92.5 173.21 185 226.61 192.5 222.28 192.5 213.62 107.5 164.54 107.5 66.4 192.5 17.32 277.5 66.4 277.5 138.56 285 142.89 292.5 138.56 292.5 57.74"/>
    <polygon class="cls-4" points="292.5 147.22 285 142.89 292.5 138.56 292.5 147.22"/>
  </g>
  <g>
    <polygon class="cls-4" points="181.57 116.92 202.47 116.92 191.91 88.5 181.57 116.92"/>
    <path class="cls-4" d="m192.5,34.64l-70,40.41v80.83l70,40.41,70-40.41v-80.83l-70-40.41Zm21.62,112.58l-6.69-17.4h-30.62l-6.32,17.4h-16.41l29.83-76.59h16.35l30.67,76.59h-16.82Z"/>
  </g>
  <path class="cls-3" d="m100,194.86l-70,40.41v80.83l70,40.41,70-40.41v-80.83l-70-40.41Zm21.68,115.43c-5.35,4.06-12.13,6.09-20.35,6.09-10.17,0-18.53-3.47-25.08-10.42-6.55-6.95-9.82-16.45-9.82-28.5,0-12.75,3.29-22.65,9.87-29.7,6.58-7.05,15.24-10.58,25.97-10.58,9.37,0,16.98,2.77,22.83,8.31,3.48,3.27,6.09,7.98,7.84,14.11l-15.31,3.66c-.91-3.97-2.8-7.11-5.67-9.4-2.87-2.3-6.37-3.45-10.48-3.45-5.68,0-10.28,2.04-13.82,6.11s-5.3,10.68-5.3,19.8c0,9.68,1.74,16.58,5.22,20.69,3.48,4.11,8.01,6.17,13.58,6.17,4.11,0,7.65-1.31,10.61-3.92,2.96-2.61,5.08-6.72,6.37-12.33l15,4.75c-2.3,8.36-6.12,14.57-11.47,18.63Z"/>
  <path class="cls-2" d="m285,194.86l-70,40.41v80.83l70,40.41,70-40.41v-80.83l-70-40.41Zm30.36,120.21h-58.25v-76.59h56.79v12.96h-41.33v16.98h38.45v12.9h-38.45v20.85h42.79v12.9Z"/>
</svg>