<?xml version="1.0" encoding="utf-8"?>
<svg  version="1.1" id="Layer_1" xmlns="http://www.w3.org/2000/svg" xmlns:xlink="http://www.w3.org/1999/xlink" x="0px" y="0px" viewBox="-47.239 131.662 322.41 291.51" style="enable-background:new 0 0 992.13 425.2;" xml:space="preserve">
  <g transform="matrix(1, 0, 0, 1, -195.036957, 66.772423)">
    <polygon class="st1" points="396.398 330.57 402.948 345.2 405.208 353.44 417.918 356.4 419.398 351.99 423.968 355.07 424.598 352.73 427.578 347.55 428.688 333.47 414.378 334.82" style="fill: rgb(32, 46, 82);"></polygon>
    <path class="st1" d="M 450.228 167.59 C 450.228 167.59 444.158 169.89 441.378 167.74 C 438.608 165.58 434.938 147.67 434.938 147.67 L 425.968 143.3 L 422.428 140.39 L 402.598 94.57 L 397.038 96.46 L 395.268 83.37 L 387.568 64.89 L 377.898 86.93 C 377.898 86.93 372.328 125.35 369.138 125.55 C 365.948 125.75 335.028 105.3 333.908 101.69 C 332.778 98.08 345.528 79.14 345.528 79.14 L 324.168 77.25 L 319.118 74.93 L 307.628 68.67 L 312.928 77.25 L 300.188 77.1 L 291.218 88.74 C 291.218 88.74 293.278 100.28 289.828 102.41 C 286.368 104.54 281.118 99.79 281.118 99.79 L 278.968 99.36 L 273.028 92.67 L 262.428 92.23 L 257.998 102.85 L 253.338 102.99 L 256.618 106.92 L 244.238 111.72 L 245.378 126.99 L 239.058 113.75 L 233.248 121.18 L 234.768 128.74 L 228.728 132.46 L 228.418 132.65 C 220.378 127.73 210.908 124.88 200.788 124.88 C 171.518 124.88 147.798 148.61 147.798 177.87 C 147.798 196.91 157.848 213.61 172.938 222.95 C 173.188 223.81 173.438 224.67 173.708 225.54 C 178.418 239.96 183.408 255.78 184.188 260.33 L 184.198 260.36 L 184.198 260.39 C 184.298 260.98 184.318 261.38 184.258 261.55 C 183.288 264.15 178.568 265.19 178.568 265.19 L 190.058 276.68 C 190.058 276.68 224.798 261.62 227.458 262.04 C 230.118 262.45 232.618 267.52 232.618 267.52 C 232.618 267.52 293.848 243.93 301.718 245.7 C 309.578 247.47 331.268 272.9 331.268 272.9 L 336.948 273.33 L 351.478 254.71 L 345.548 275.66 L 351.228 277.54 L 353.888 268.96 L 357.428 274.49 L 354.018 282.05 L 360.078 280.74 L 378.648 306.06 L 391.008 308.58 L 403.528 305.48 L 416.668 312.6 L 420.008 312.6 L 419.308 310.18 L 428.408 301.84 L 443.948 298.06 L 459.058 256.89 L 461.838 254.27 L 470.208 191.71 L 450.758 176 L 450.228 167.59 Z" style="fill: rgb(32, 46, 82);"></path>
  </g>
  <polygon class="st2" points="236.9,181.26 211.98,232.06 186.81,181.26 182.71,181.26 172.81,250.42 183.24,250.42 188.97,208.37 
		209.85,250.42 214.05,250.42 234.66,208.72 240.42,250.42 250.95,250.42 241,181.26 	" style="fill: rgb(255, 255, 255);" transform="matrix(1, 0, 0, 1, -98.138657, 47.252357)"></polygon>
  <path class="st2" d="M307.98,215.14v9.67l20.44,0.11c-0.45,2.07-1.17,4-2.13,5.73c-1.26,2.24-2.91,4.18-5.04,5.91
		c-4.29,3.49-9.42,5.19-15.69,5.2c-5.22,0-9.87-1.16-14.24-3.53c-4.34-2.37-7.64-5.52-10.1-9.64c-2.45-4.12-3.64-8.34-3.65-12.91
		c0-4.45,1.15-8.55,3.52-12.56c2.37-4,5.62-7.09,9.94-9.44c4.35-2.36,8.8-3.51,13.6-3.51c3.79,0,7.77,0.87,11.82,2.6
		c4.06,1.73,7.85,4.32,11.29,7.69l1.41,1.39l8.04-7.62l-1.57-1.49c-4.79-4.55-9.79-7.91-14.87-9.99
		c-5.09-2.08-10.58-3.14-16.36-3.14c-7.12,0-13.61,1.6-19.29,4.75c-5.7,3.16-10.24,7.6-13.51,13.21
		c-3.27,5.59-4.92,11.72-4.92,18.24c0,4.37,0.72,8.54,2.15,12.39c1.42,3.86,3.59,7.5,6.43,10.83c3.7,4.32,8.12,7.61,13.15,9.77
		c5,2.15,10.7,3.24,16.97,3.24c5.17,0,9.91-0.79,14.08-2.35c4.21-1.57,7.94-3.97,11.1-7.12c3.15-3.15,5.56-6.9,7.14-11.15
		c1.57-4.2,2.38-8.99,2.41-14.23l0.01-2.06H307.98z" style="fill: rgb(255, 255, 255);" transform="matrix(1, 0, 0, 1, -98.138657, 47.252357)"></path>
  <path class="st2" d="M156.76,194.42c-0.04-0.79-0.1-1.58-0.18-2.37c-0.01-0.07-0.02-0.14-0.02-0.2c-0.08-0.73-0.17-1.45-0.28-2.17
		c-0.03-0.19-0.06-0.38-0.08-0.57c-0.12-0.76-0.25-1.52-0.41-2.27c-0.02-0.11-0.05-0.22-0.07-0.34c-0.14-0.66-0.29-1.32-0.46-1.98
		c-0.05-0.19-0.09-0.37-0.14-0.56c-0.19-0.73-0.39-1.45-0.61-2.16c-0.05-0.15-0.1-0.29-0.14-0.44c-0.19-0.61-0.4-1.21-0.61-1.81
		c-0.06-0.18-0.13-0.36-0.19-0.54c-0.25-0.69-0.52-1.37-0.8-2.04c-0.07-0.17-0.15-0.34-0.22-0.51c-0.24-0.55-0.49-1.1-0.74-1.65
		c-0.08-0.18-0.16-0.35-0.25-0.53c-0.31-0.64-0.64-1.28-0.98-1.91c-0.1-0.19-0.21-0.38-0.31-0.56c-0.28-0.5-0.57-1-0.86-1.49
		c-0.1-0.17-0.2-0.34-0.31-0.51c-0.36-0.59-0.74-1.18-1.13-1.76c-0.13-0.2-0.27-0.4-0.41-0.6c-0.31-0.46-0.64-0.91-0.96-1.36
		c-0.12-0.16-0.23-0.33-0.36-0.49c-0.41-0.55-0.83-1.08-1.26-1.61c-0.17-0.2-0.34-0.41-0.5-0.61c-0.35-0.42-0.71-0.83-1.07-1.23
		c-0.16-0.18-0.32-0.36-0.48-0.54c-0.42-0.46-0.86-0.92-1.3-1.36c-0.2-0.2-0.4-0.4-0.6-0.6c-0.39-0.38-0.78-0.76-1.18-1.13
		c-0.23-0.21-0.45-0.42-0.68-0.62c-0.41-0.36-0.82-0.72-1.23-1.07c-0.22-0.19-0.45-0.38-0.68-0.56c-0.44-0.36-0.89-0.71-1.34-1.06
		c-0.26-0.19-0.51-0.38-0.77-0.57c-0.4-0.29-0.81-0.58-1.22-0.87c-0.25-0.17-0.49-0.34-0.74-0.5c-0.54-0.36-1.08-0.71-1.63-1.05
		c-0.01-0.01-0.02-0.01-0.03-0.02c0.02,0.31,0.04,0.62,0.05,0.94c0.33,6.12-0.69,14.27-7.01,19.78c-1.81,1.58-4.05,2.95-6.83,3.99
		l-0.04,0.02c-2.88,1.07-5.85,2.13-8.83,3.24c-5.86,2.18-11.74,4.56-17.04,7.58c-8.95,5.1-16.19,12.05-18.73,23.01
		c-1.05,4.54-1.31,9.75-0.53,15.82c0.59,4.62,1.56,9.02,2.78,13.49c0.16,0.58,0.32,1.16,0.49,1.74c0.06,0.23,0.14,0.46,0.2,0.68
		c0,0,0.01,0,0.01,0.01c0.37,0.23,0.75,0.45,1.13,0.68c0.25,0.15,0.5,0.29,0.75,0.43c0.37,0.21,0.75,0.42,1.12,0.62
		c0.32,0.17,0.64,0.33,0.96,0.49c0.56,0.28,1.13,0.56,1.7,0.82c0.33,0.15,0.67,0.31,1,0.45c0.34,0.15,0.69,0.3,1.03,0.44
		c0.41,0.17,0.83,0.33,1.25,0.49c0.41,0.16,0.82,0.31,1.23,0.45c0.5,0.18,1.01,0.35,1.52,0.51c0.29,0.09,0.59,0.18,0.89,0.27
		c0.5,0.15,0.99,0.29,1.49,0.42c0.23,0.06,0.47,0.13,0.7,0.19c0.71,0.18,1.43,0.34,2.15,0.5c0.23,0.05,0.45,0.09,0.68,0.13
		c0.58,0.11,1.16,0.22,1.75,0.31c0.21,0.03,0.42,0.07,0.64,0.1c0.77,0.11,1.55,0.21,2.33,0.3c0.13,0.01,0.27,0.02,0.4,0.04
		c0.68,0.07,1.37,0.12,2.05,0.16c0.2,0.01,0.41,0.02,0.61,0.03c0.81,0.04,1.63,0.06,2.45,0.06c0.59,0,1.18-0.03,1.77-0.04
		c2.3-0.1,4.71-0.36,6.36-0.58l-0.02-68.18h38.99v11.29h-26.87v16.51h23.05v11.4h-22.96l-0.06,25.56
		c7.75-3.21,14.57-8.21,19.96-14.47c0.05-0.06,0.11-0.12,0.16-0.18c0.36-0.42,0.71-0.85,1.06-1.29c0.1-0.13,0.2-0.25,0.3-0.38
		c1.01-1.29,1.96-2.62,2.84-4c0.14-0.22,0.28-0.43,0.42-0.65c0.23-0.38,0.46-0.76,0.69-1.14c0.16-0.28,0.32-0.55,0.48-0.83
		c0.2-0.36,0.41-0.72,0.61-1.09c0.23-0.42,0.44-0.85,0.66-1.28c0.23-0.46,0.45-0.93,0.67-1.4c0.19-0.4,0.37-0.8,0.55-1.21
		c0.14-0.32,0.27-0.64,0.4-0.96c0.17-0.42,0.34-0.84,0.5-1.26c0.11-0.29,0.23-0.59,0.33-0.89c0.25-0.69,0.49-1.38,0.71-2.08
		c0.06-0.18,0.1-0.36,0.16-0.53c0.17-0.58,0.34-1.15,0.49-1.74c0.07-0.27,0.14-0.54,0.21-0.82c0.13-0.53,0.25-1.05,0.37-1.58
		c0.05-0.25,0.11-0.51,0.16-0.76c0.15-0.77,0.29-1.54,0.41-2.31c0.01-0.07,0.02-0.15,0.03-0.22c0.11-0.72,0.2-1.45,0.28-2.17
		c0.03-0.25,0.05-0.5,0.07-0.75c0.05-0.59,0.1-1.18,0.13-1.77c0.01-0.24,0.03-0.49,0.04-0.73c0.04-0.82,0.06-1.63,0.06-2.46
		c0,0,0,0,0,0c0-0.81-0.03-1.62-0.06-2.43C156.78,194.81,156.77,194.62,156.76,194.42z" style="fill: rgb(255, 255, 255);" transform="matrix(1, 0, 0, 1, -98.138657, 47.252357)"></path>
</svg>