<?xml version="1.0" encoding="UTF-8"?>
<svg id="Layer_1" data-name="Layer 1" xmlns="http://www.w3.org/2000/svg" viewBox="0 0 1382.43 524.37">
  <defs>
    <style>
      .cls-1, .cls-2, .cls-3 {
        font-family: Arial-BoldMT, Arial;
        font-size: 400px;
        font-weight: 700;
      }

      .cls-1, .cls-4, .cls-5 {
        fill: #418fde;
      }

      .cls-2, .cls-6, .cls-3, .cls-7, .cls-8 {
        fill: #fff;
      }

      .cls-9 {
        fill: #e0e0e0;
      }

      .cls-10, .cls-11 {
        fill: #244d7f;
      }

      .cls-3 {
        letter-spacing: -.02em;
      }

      .cls-7 {
        isolation: isolate;
        opacity: .5;
      }

      .cls-8, .cls-12, .cls-13, .cls-4 {
        stroke-width: 8.82px;
      }

      .cls-8, .cls-12, .cls-13, .cls-4, .cls-5, .cls-14, .cls-15, .cls-16 {
        stroke: #000;
      }

      .cls-8, .cls-12, .cls-13, .cls-4, .cls-5, .cls-14, .cls-15, .cls-16, .cls-11 {
        stroke-miterlimit: 10;
      }

      .cls-12, .cls-16 {
        fill: #e53935;
      }

      .cls-13 {
        fill: #ffc107;
      }

      .cls-17 {
        fill: #4e8fcc;
        opacity: .33;
      }

      .cls-5, .cls-14, .cls-15, .cls-16 {
        stroke-width: 7.03px;
      }

      .cls-14 {
        fill: #355bb7;
      }

      .cls-15 {
        fill: #b3b4b4;
      }

      .cls-11 {
        stroke: #244d7f;
        stroke-width: 30px;
      }
    </style>
  </defs>
  <text class="cls-3" transform="translate(1122.86 373.79)"><tspan x="0" y="0">P</tspan></text>
  <text class="cls-2" transform="translate(835.72 373.79)"><tspan x="0" y="0">E</tspan></text>
  <text class="cls-1" transform="translate(528.33 372.86)"><tspan x="0" y="0">D</tspan></text>
  <g>
    <path class="cls-8" d="m381.98,23.94v169.26h-45.57c-13.02,0-13.02,13.02-13.02,13.02,0,5.86,4.56,9.11,6.51,10.42,7.81,4.56,13.02,13.02,13.02,22.13,0,14.32-13.02,26.04-32.55,26.04s-32.55-11.72-32.55-26.04c0-9.76,5.21-18.23,13.02-22.78,1.95-1.3,6.51-3.91,6.51-9.76,0,0,0-13.02-13.02-13.02h-91.14v-91.14c0-13.02,13.02-13.02,13.02-13.02,5.86,0,9.11,4.56,9.76,6.51,4.56,7.81,13.02,13.02,22.78,13.02,14.32,0,26.04-13.02,26.04-32.55s-11.72-32.55-26.04-32.55c-9.76,0-18.23,5.21-22.13,13.02-1.3,1.95-4.56,6.51-10.42,6.51,0,0-13.02,0-13.02-13.02V4.41h169.26c11.07,0,19.53,8.46,19.53,19.53"/>
    <path class="cls-13" d="m238.77,43.47c14.32,0,26.04,13.02,26.04,32.55s-11.72,32.55-26.04,32.55c-9.76,0-18.23-5.21-22.78-13.02-1.3-1.95-3.91-6.51-9.76-6.51,0,0-13.02,0-13.02,13.02v91.14h-91.14c-13.02,0-13.02-13.02-13.02-13.02,0-5.86,4.56-9.11,6.51-9.76,7.81-4.56,13.02-13.02,13.02-22.78,0-14.32-13.02-26.04-32.55-26.04s-32.55,11.72-32.55,26.04c0,9.76,5.21,18.23,13.02,22.13,1.95,1.3,6.51,4.56,6.51,10.42,0,0,0,13.02-13.02,13.02H4.41V23.94C4.41,12.87,12.87,4.41,23.94,4.41h169.26v45.57c0,13.02,13.02,13.02,13.02,13.02,5.86,0,9.11-4.56,10.42-6.51,3.91-7.81,12.37-13.02,22.13-13.02"/>
    <path class="cls-12" d="m193.2,336.42v45.57H23.94c-11.07,0-19.53-8.46-19.53-19.53v-169.26h45.57c13.02,0,13.02-13.02,13.02-13.02,0-5.86-4.56-9.11-6.51-10.42-7.81-4.56-13.02-13.02-13.02-22.13,0-14.32,13.02-26.04,32.55-26.04s32.55,11.72,32.55,26.04c0,9.76-5.21,18.23-13.02,22.78-1.95,1.3-6.51,3.91-6.51,9.76,0,0,0,13.02,13.02,13.02h91.14v91.14c0,13.02-13.02,13.02-13.02,13.02-5.86,0-9.11-4.56-9.76-6.51-4.56-7.81-13.02-13.02-22.78-13.02-14.32,0-26.04,13.02-26.04,32.55s11.72,32.55,26.04,32.55c9.76,0,18.23-5.21,22.13-13.02,1.3-1.95,4.56-6.51,10.42-6.51,0,0,13.02,0,13.02,13.02"/>
    <path class="cls-4" d="m381.98,193.2v169.26c0,11.07-8.46,19.53-19.53,19.53h-169.26v-45.57c0-13.02-13.02-13.02-13.02-13.02-5.86,0-9.11,4.56-10.42,6.51-4.56,7.81-13.02,13.02-22.13,13.02-14.32,0-26.04-13.02-26.04-32.55s11.72-32.55,26.04-32.55c9.76,0,18.23,5.21,22.78,13.02,1.3,1.95,3.91,6.51,9.76,6.51,0,0,13.02,0,13.02-13.02v-91.14h91.14c13.02,0,13.02,13.02,13.02,13.02,0,5.86-4.56,9.11-6.51,9.76-7.81,4.56-13.02,13.02-13.02,22.78,0,14.32,13.02,26.04,32.55,26.04s32.55-11.72,32.55-26.04c0-9.76-5.21-18.23-13.02-22.13-1.95-1.3-6.51-4.56-6.51-10.42,0,0,0-13.02,13.02-13.02h45.57Z"/>
  </g>
  <g>
    <path class="cls-16" d="m106.29,228.56s12.59,18.46-3.36,30.22c0,0-9.44,10.08-24.66,12.03,8.12,12.52,20.19,22.6,29.16,34.39,6.46,8.49,13.49,15.64,21.78,22.35,8.48,6.86,16.87,13.6,23.96,21.95,1.12,1.32,1.61,3.08,1.31,4.67,6.54,3.54,14.67,3.82,22.11,3.32,7.43-.49,14.79-1.95,22.02-3.84v-1.7c.84-2.52,10.91-5.88,10.91-5.88,2.03,0,5.85.6,9.99,1.38,16.78-5.22,33.52-10.92,48.87-18.85.15-.93.27-1.85.36-2.76l.25-4.47c.14-15.97-7.43-27.34-7.43-27.34-10.07-17.62-41.13-3.36-41.13-3.36-18.47,10.91-21.82,1.68-21.82,1.68v-94.84h-87.29s-15.11-.84-15.11,10.07c0,0-4.2,12.59,10.07,20.98Z"/>
    <path class="cls-16" d="m261.59,343.33c-6.84,3-13.82,5.65-20.89,8.05,11.26.14,18.09-4.65,21.72-8.42-.28.12-.55.25-.83.37Z"/>
    <path class="cls-8" d="m279.19,134.56c9.25-6.68,21.94-8.95,30.4-9.71-3.35-4.51-6.48-9.21-9.61-13.93-6.83-10.28-14.38-20.71-25.21-27.13-3.23-1.92-6.59-3.62-10.03-5.18.5,1.67.85,3.52,1.02,5.58,0,0,.84,28.54-7.55,35.25,0,0-12.59,14.27-36.93,3.36,0,0-19.31-15.11-22.66,2.52v72.18h79.74c5.88-2.52,5.88-13.43,5.88-13.43,0-5.04-13.43-19.3-13.43-19.3-6.72-17.63,8.39-30.22,8.39-30.22Z"/>
    <path class="cls-15" d="m210.33,67.64c1.93,1.12,4.17,1.96,6.74,2.35,0,0,2.59-.77,6.14-1.8-4.31-.37-8.61-.55-12.89-.56Z"/>
    <path class="cls-15" d="m325.36,187.44c-.84,5.88,7.55,10.07,7.55,10.07h6.97c-.4-7.85-1.49-15.61-3.19-23.25-5.42,7.27-11.33,13.18-11.33,13.18Z"/>
    <g>
      <path class="cls-14" d="m220.44,290.68s31.05-14.27,41.13,3.36c0,0,7.58,11.36,7.43,27.34-.01,1.45-.1,2.95-.25,4.47-.09.91-.21,1.83-.36,2.76,16.89-8.72,32.11-20.14,43.85-36.59,14.98-20.98,24.16-47.54,27.01-73.07.8-7.2.98-14.35.62-21.44h-6.97s-8.39-4.2-7.55-10.07c0,0,5.91-5.91,11.33-13.18-2.47-11.12-6.25-21.99-11.11-32.5-.57-.21-1.13-.53-1.66-1-5.45-4.77-10.06-10.19-14.32-15.91-8.47.76-21.16,3.04-30.4,9.71,0,0-15.11,12.59-8.39,30.22,0,0,13.43,14.27,13.43,19.3,0,0,0,10.91-5.88,13.43h-79.74v94.84s3.36,9.23,21.82-1.68Z"/>
      <path class="cls-14" d="m329.3,132.15c1.55-.07,3.09.66,3.99,2.56,4.32,9.06,7.87,18.32,10.57,27.74.91-2.14,1.51-4.19,1.64-6.06,0,0,4.57-25.24-22.79-31.17,2.06,2.42,4.25,4.74,6.59,6.94Z"/>
      <path class="cls-14" d="m198.62,351.95v1.69c3.21-.84,6.4-1.75,9.55-2.71,3.78-1.15,7.56-2.3,11.35-3.48-4.14-.78-7.96-1.38-9.99-1.38,0,0-10.07,3.36-10.91,5.88Z"/>
      <path class="cls-14" d="m329.29,132.15c1.56-.08,3.09.65,4,2.56,4.06,8.5,7.43,17.18,10.06,26.01.57-1.55.94-3.04,1.04-4.4,0-.04,0-.08.02-.12.02-.11,1.86-10.89-4.51-19.62-3.52-4.82-8.88-8.15-15.95-9.94,1.69,1.91,3.47,3.76,5.35,5.52Z"/>
      <path class="cls-5" d="m205.52,294.89c3.72,0,8.55-1.74,14.36-5.17.03-.02.07-.04.1-.05.49-.23,12.22-5.55,23.77-5.55,8.9,0,15.21,3.14,18.77,9.34.54.83,7.74,12.07,7.6,27.93-.01,1.48-.1,3.02-.25,4.57-.07.68-.18,1.35-.27,2.03,16.41-8.64,31.19-19.91,42.65-35.96,14.98-20.98,24.16-47.54,27.01-73.07.76-6.82.97-13.6.68-20.32h-7.03c-.17,0-.34-.04-.5-.12-.37-.19-9.1-4.63-8.15-11.23.03-.24.14-.46.31-.63.11-.11,6.34-6.38,11.79-13.83-2.47-10.62-6.14-21-10.78-31.06-.57-.21-1.13-.53-1.66-1-5.11-4.48-9.49-9.53-13.53-14.87-8.39.68-21.2,2.85-30.5,9.55-.68.59-14.16,12.49-8.12,28.74,1.97,2.11,13.58,14.74,13.58,19.9,0,.48-.08,11.68-6.55,14.45-.14.06-.29.09-.44.09h-78.62v93.49c.31.61,1.7,2.77,5.78,2.77Z"/>
      <path class="cls-14" d="m208.17,350.94c3.01-.92,6.04-1.84,9.06-2.77-3.12-.56-5.88-.95-7.52-.98-4.41,1.49-9.29,3.77-9.97,4.99v1.18c2.83-.76,5.65-1.57,8.44-2.42Z"/>
    </g>
    <path class="cls-13" d="m139.06,84.45c-16.8,8.08-33.26,17.96-46.78,30.91-9.62,9.21-18.02,20.53-19.7,33.63.19.88.13,1.79-.24,2.6-.13,2.26-.07,4.57.24,6.92.66,5.16-5.77,6.09-8.67,2.92-2.59,7.13-2.37,16.99-2.37,22.81,0,14.18,1.64,28.38,3.87,42.36,1.71,10.7,3.19,22.11,6.88,32.36,1.53,4.24,3.58,8.15,5.98,11.85,15.22-1.94,24.66-12.03,24.66-12.03,15.95-11.75,3.36-30.22,3.36-30.22-14.27-8.39-10.07-20.98-10.07-20.98,0-10.91,15.11-10.07,15.11-10.07h86.45v-3.36h.84v-68.82c3.36-17.63,22.66-2.52,22.66-2.52,24.34,10.91,36.93-3.36,36.93-3.36,8.39-6.71,7.55-35.25,7.55-35.25-.16-2.06-.52-3.91-1.02-5.58-12.95-5.84-27.22-9.18-41.53-10.43-3.56,1.02-6.15,1.8-6.15,1.8-2.58-.4-4.81-1.23-6.74-2.35-4.03,0-8.04.12-11.98.41-20.77,1.55-40.59,7.41-59.28,16.4Z"/>
  </g>
  <g>
    <g>
      <circle class="cls-17" cx="199.73" cy="197.49" r="129.78"/>
      <path class="cls-7" d="m156.82,271.67c-43.32-43.32-43.88-112.98-1.26-155.6,9.51-9.51,20.41-16.75,32.02-21.96-16.5,4.81-32.06,13.7-45.06,26.71-41.29,41.29-41.29,108.23,0,149.52,18.28,18.28,41.6,28.43,65.48,30.52-18.7-4.83-36.47-14.49-51.18-29.2Z"/>
    </g>
    <g>
      <path class="cls-11" d="m315.8,85.42c-61.91-61.91-162.29-61.91-224.2,0-61.91,61.91-61.91,162.29,0,224.2,57.05,57.05,146.7,61.39,208.88,13.29l14.18,14.18,28.61-28.61-14.18-14.18c48.1-62.18,43.76-151.83-13.29-208.88Zm-20.33,203.87c-50.68,50.68-132.85,50.68-183.53,0-50.68-50.68-50.68-132.85,0-183.53,50.68-50.68,132.85-50.68,183.53,0,50.68,50.68,50.68,132.85,0,183.53Z"/>
      <rect class="cls-10" x="350.49" y="340.49" width="90.65" height="98.12" transform="translate(-159.52 393.98) rotate(-45)"/>
      <path class="cls-10" d="m505.2,434.84l-20.19-20.19-64.1,64.1,20.19,20.19c13.73,13.73,77.83-50.36,64.1-64.1Z"/>
      <rect class="cls-9" x="317.83" y="359.81" width=".01" height="31.75" transform="translate(-172.56 334.78) rotate(-45)"/>
      <rect class="cls-6" x="304.57" y="327.76" width="90.65" height="31.75" transform="translate(-140.5 348.06) rotate(-45)"/>
      <rect class="cls-9" x="409.67" y="451.64" width=".02" height="31.75" transform="translate(-210.6 426.62) rotate(-45)"/>
      <rect class="cls-9" x="473.78" y="387.53" width=".01" height="31.75" transform="translate(-146.49 453.17) rotate(-45)"/>
      <rect class="cls-6" x="396.41" y="419.59" width="90.65" height="31.75" transform="translate(-178.54 439.89) rotate(-45)"/>
    </g>
  </g>
</svg>