<svg id="SvgjsSvg1001" width="288" height="288" xmlns="http://www.w3.org/2000/svg" version="1.1" xmlns:xlink="http://www.w3.org/1999/xlink" xmlns:svgjs="http://svgjs.com/svgjs"><defs id="SvgjsDefs1002"></defs><g id="SvgjsG1008" transform="matrix(1,0,0,1,0,0)"><svg xmlns="http://www.w3.org/2000/svg" id="Layer_1" x="0" y="0" enable-background="new 0 0 992.13 425.2" version="1.1" viewBox="0 0 425.2 425.2" xml:space="preserve" width="288" height="288"><linearGradient id="SVGID_1_" x1="70.868" x2="71.575" y1="637.793" y2="637.086" gradientUnits="userSpaceOnUse"><stop offset="0" stop-color="#1eab4b" class="stopColor1eab4b svgShape"></stop><stop offset=".983" stop-color="#19361a" class="stopColor19361a svgShape"></stop></linearGradient><path fill="#ff6699" d="M112.75,249.66v-0.12l-0.63,0.2C112.33,249.72,112.54,249.69,112.75,249.66z" class="color00245d svgShape"></path><polygon fill="#00235d" points="299.5 350.09 306.05 364.72 308.31 372.96 321.02 375.92 322.5 371.51 327.07 374.59 327.7 372.25 330.68 367.07 331.79 352.99 317.48 354.34" class="color304ffe svgShape"></polygon><path fill="#00235d" d="M353.33,187.11c0,0-6.07,2.3-8.85,0.15c-2.77-2.16-6.44-20.07-6.44-20.07l-8.97-4.37l-3.54-2.91l-19.83-45.82		l-5.56,1.89l-1.77-13.09l-7.7-18.48L281,106.45c0,0-5.57,38.42-8.76,38.62c-3.19,0.2-34.11-20.25-35.23-23.86
		c-1.13-3.61,11.62-22.55,11.62-22.55l-21.36-1.89l-5.05-2.32l-11.49-6.26l5.3,8.58l-12.74-0.15l-8.97,11.64
		c0,0,2.06,11.54-1.39,13.67c-3.46,2.13-8.71-2.62-8.71-2.62l-2.15-0.43l-5.94-6.69l-10.6-0.44l-4.43,10.62l-4.66,0.14l3.28,3.93
		l-12.38,4.8l1.14,15.27l-6.32-13.24l-5.81,7.43l1.52,7.56l-6.04,3.72l-0.31,0.19c-8.04-4.92-17.51-7.77-27.63-7.77
		c-29.27,0-52.99,23.73-52.99,52.99c0,19.04,10.05,35.74,25.14,45.08c0.25,0.86,0.5,1.72,0.77,2.59
		c4.71,14.42,9.7,30.24,10.48,34.79l0.01,0.03l0,0.03c0.1,0.59,0.12,0.99,0.06,1.16c-0.97,2.6-5.69,3.64-5.69,3.64l11.49,11.49
		c0,0,34.74-15.06,37.4-14.64c2.66,0.41,5.16,5.48,5.16,5.48s61.23-23.59,69.1-21.82c7.86,1.77,29.55,27.2,29.55,27.2l5.68,0.43
		l14.53-18.62l-5.93,20.95l5.68,1.88l2.66-8.58l3.54,5.53l-3.41,7.56l6.06-1.31l18.57,25.32l12.36,2.52l12.52-3.1l13.14,7.12h3.34
		l-0.7-2.42l9.1-8.34l15.54-3.78l15.11-41.17l2.78-2.62l8.37-62.56l-19.45-15.71L353.33,187.11z" class="color304ffe svgShape"></path><g fill="#000000" class="color000 svgShape"><polygon fill="#ffffff" points="236.9 181.26 211.98 232.06 186.81 181.26 182.71 181.26 172.81 250.42 183.24 250.42 188.97 208.37 209.85 250.42 214.05 250.42 234.66 208.72 240.42 250.42 250.95 250.42 241 181.26" class="colorfff svgShape"></polygon><path fill="#ffffff" d="M307.98 215.14v9.67l20.44.11c-.45 2.07-1.17 4-2.13 5.73-1.26 2.24-2.91 4.18-5.04 5.91-4.29 3.49-9.42 5.19-15.69 5.2-5.22 0-9.87-1.16-14.24-3.53-4.34-2.37-7.64-5.52-10.1-9.64-2.45-4.12-3.64-8.34-3.65-12.91 0-4.45 1.15-8.55 3.52-12.56 2.37-4 5.62-7.09 9.94-9.44 4.35-2.36 8.8-3.51 13.6-3.51 3.79 0 7.77.87 11.82 2.6 4.06 1.73 7.85 4.32 11.29 7.69l1.41 1.39 8.04-7.62-1.57-1.49c-4.79-4.55-9.79-7.91-14.87-9.99-5.09-2.08-10.58-3.14-16.36-3.14-7.12 0-13.61 1.6-19.29 4.75-5.7 3.16-10.24 7.6-13.51 13.21-3.27 5.59-4.92 11.72-4.92 18.24 0 4.37.72 8.54 2.15 12.39 1.42 3.86 3.59 7.5 6.43 10.83 3.7 4.32 8.12 7.61 13.15 9.77 5 2.15 10.7 3.24 16.97 3.24 5.17 0 9.91-.79 14.08-2.35 4.21-1.57 7.94-3.97 11.1-7.12 3.15-3.15 5.56-6.9 7.14-11.15 1.57-4.2 2.38-8.99 2.41-14.23l.01-2.06H307.98zM156.76 194.42c-.04-.79-.1-1.58-.18-2.37-.01-.07-.02-.14-.02-.2-.08-.73-.17-1.45-.28-2.17-.03-.19-.06-.38-.08-.57-.12-.76-.25-1.52-.41-2.27-.02-.11-.05-.22-.07-.34-.14-.66-.29-1.32-.46-1.98-.05-.19-.09-.37-.14-.56-.19-.73-.39-1.45-.61-2.16-.05-.15-.1-.29-.14-.44-.19-.61-.4-1.21-.61-1.81-.06-.18-.13-.36-.19-.54-.25-.69-.52-1.37-.8-2.04-.07-.17-.15-.34-.22-.51-.24-.55-.49-1.1-.74-1.65-.08-.18-.16-.35-.25-.53-.31-.64-.64-1.28-.98-1.91-.1-.19-.21-.38-.31-.56-.28-.5-.57-1-.86-1.49-.1-.17-.2-.34-.31-.51-.36-.59-.74-1.18-1.13-1.76-.13-.2-.27-.4-.41-.6-.31-.46-.64-.91-.96-1.36-.12-.16-.23-.33-.36-.49-.41-.55-.83-1.08-1.26-1.61-.17-.2-.34-.41-.5-.61-.35-.42-.71-.83-1.07-1.23-.16-.18-.32-.36-.48-.54-.42-.46-.86-.92-1.3-1.36-.2-.2-.4-.4-.6-.6-.39-.38-.78-.76-1.18-1.13-.23-.21-.45-.42-.68-.62-.41-.36-.82-.72-1.23-1.07-.22-.19-.45-.38-.68-.56-.44-.36-.89-.71-1.34-1.06-.26-.19-.51-.38-.77-.57-.4-.29-.81-.58-1.22-.87-.25-.17-.49-.34-.74-.5-.54-.36-1.08-.71-1.63-1.05-.01-.01-.02-.01-.03-.02.02.31.04.62.05.94.33 6.12-.69 14.27-7.01 19.78-1.81 1.58-4.05 2.95-6.83 3.99l-.04.02c-2.88 1.07-5.85 2.13-8.83 3.24-5.86 2.18-11.74 4.56-17.04 7.58-8.95 5.1-16.19 12.05-18.73 23.01-1.05 4.54-1.31 9.75-.53 15.82.59 4.62 1.56 9.02 2.78 13.49.16.58.32 1.16.49 1.74.06.23.14.46.2.68 0 0 .01 0 .01.01.37.23.75.45 1.13.68.25.15.5.29.75.43.37.21.75.42 1.12.62.32.17.64.33.96.49.56.28 1.13.56 1.7.82.33.15.67.31 1 .45.34.15.69.3 1.03.44.41.17.83.33 1.25.49.41.16.82.31 1.23.45.5.18 1.01.35 1.52.51.29.09.59.18.89.27.5.15.99.29 1.49.42.23.06.47.13.7.19.71.18 1.43.34 2.15.5.23.05.45.09.68.13.58.11 1.16.22 1.75.31.21.03.42.07.64.1.77.11 1.55.21 2.33.3.13.01.27.02.4.04.68.07 1.37.12 2.05.16.2.01.41.02.61.03.81.04 1.63.06 2.45.06.59 0 1.18-.03 1.77-.04 2.3-.1 4.71-.36 6.36-.58l-.02-68.18h38.99v11.29h-26.87v16.51h23.05v11.4h-22.96l-.06 25.56c7.75-3.21 14.57-8.21 19.96-14.47.05-.06.11-.12.16-.18.36-.42.71-.85 1.06-1.29.1-.13.2-.25.3-.38 1.01-1.29 1.96-2.62 2.84-4 .14-.22.28-.43.42-.65.23-.38.46-.76.69-1.14.16-.28.32-.55.48-.83.2-.36.41-.72.61-1.09.23-.42.44-.85.66-1.28.23-.46.45-.93.67-1.4.19-.4.37-.8.55-1.21.14-.32.27-.64.4-.96.17-.42.34-.84.5-1.26.11-.29.23-.59.33-.89.25-.69.49-1.38.71-2.08.06-.18.1-.36.16-.53.17-.58.34-1.15.49-1.74.07-.27.14-.54.21-.82.13-.53.25-1.05.37-1.58.05-.25.11-.51.16-.76.15-.77.29-1.54.41-2.31.01-.07.02-.15.03-.22.11-.72.2-1.45.28-2.17.03-.25.05-.5.07-.75.05-.59.1-1.18.13-1.77.01-.24.03-.49.04-.73.04-.82.06-1.63.06-2.46 0 0 0 0 0 0 0-.81-.03-1.62-.06-2.43C156.78 194.81 156.77 194.62 156.76 194.42z" class="colorfff svgShape"></path></g></svg></g></svg>