
<svg  version="1.1" id="Layer_1" xmlns="http://www.w3.org/2000/svg" xmlns:xlink="http://www.w3.org/1999/xlink" x="0px" y="0px" viewBox="300 140 700 140" style="enable-background:new 0 0 992.13 425.2;" xml:space="preserve">
                <g>
                  <polygon
                    fill="#fff"
                    points="409.37,259.9 425.34,259.9 425.34,222.63 457.55,222.63 457.55,209.64 425.34,209.64 425.34,185.49 
		460.02,185.49 460.02,172.37 409.37,172.37"
                  />
                  <path
                    fill="#fff"
                    d="M498.62,195.22c-19.09,0-32.72,12.73-32.72,33.5c0,20.39,13.9,32.6,31.69,32.6c16.1,0,32.47-10.39,32.47-33.63
		C530.06,208.47,517.46,195.22,498.62,195.22z M498.1,249.77c-9.61,0-15.71-9.22-15.71-21.43c0-10.51,4.55-21.55,15.85-21.55
		c10.91,0,15.32,11.43,15.32,21.3C513.56,240.93,507.2,249.77,498.1,249.77z"
                  />
                  <path
                    fill="#fff"
                    d="M551.2,208.6h-0.39l-0.65-11.95h-13.77c0.4,5.58,0.52,11.82,0.52,20.39v42.86h15.97v-32.86
		c0-1.69,0.14-3.38,0.4-4.81c1.43-7.28,6.75-12.08,14.29-12.08c1.95,0,3.37,0.13,4.8,0.38v-14.93c-1.3-0.27-2.2-0.39-3.76-0.39
		C561.72,195.22,554.31,199.77,551.2,208.6z"
                  />
                  <path
                    fill="#fff"
                    d="M604.17,180.42l-15.72,4.42v11.82h-8.96v11.95h8.96v29.74c0,8.31,1.56,14.15,5.07,17.79
		c2.99,3.25,7.8,5.19,13.77,5.19c4.93,0,9.21-0.77,11.55-1.68l-0.26-12.08c-1.81,0.52-3.37,0.64-6.23,0.64
		c-6.11,0-8.18-3.89-8.18-11.68V208.6h15.19v-11.95h-15.19V180.42z"
                  />
                  <path
                    fill="#fff"
                    d="M656.28,195.22c-20.26,0-30.91,16.49-30.91,34.02c0,19.35,12.07,31.96,32.6,31.96
		c9.09,0,16.62-1.69,22.07-4.03l-2.33-10.91c-4.93,1.69-10.13,2.86-17.54,2.86c-10.26,0-19.09-4.93-19.48-16.37h42.34
		c0.27-1.43,0.52-3.76,0.52-6.75C683.55,212.1,676.8,195.22,656.28,195.22z M640.7,221.59c0.65-6.49,4.81-15.45,14.68-15.45
		c10.65,0,13.24,9.61,13.11,15.45H640.7z"
                  />
                  <path
                    fill="#fff"
                    d="M719.31,222.1c-8.06-2.98-11.04-4.81-11.04-8.83c0-3.9,3.12-6.75,8.83-6.75c5.58,0,10.78,2.08,13.38,3.64
		l3.25-11.17c-3.76-2.07-9.87-3.76-16.88-3.76c-14.68,0-23.9,8.57-23.9,19.74c0,7.54,5.06,14.29,17.4,18.44
		c7.8,2.86,10.39,4.94,10.39,9.22c0,4.16-3.12,7.14-10.13,7.14c-5.72,0-12.6-2.47-16.11-4.67l-3.24,11.68
		c4.68,2.6,11.56,4.42,19.21,4.42c16.76,0,25.72-8.31,25.72-19.87C736.05,231.98,730.86,226.13,719.31,222.1z"
                  />
                  <path
                    fill="#fff"
                    d="M777.72,207.69c5.72,0,9.48,1.17,12.08,2.47l2.86-12.08c-3.64-1.56-9.62-2.85-15.46-2.85
		c-22.2,0-35.19,14.68-35.19,33.64c0,19.61,12.85,32.34,32.6,32.34c7.91,0,14.54-1.69,17.92-3.25l-2.21-11.82
		c-3.12,1.3-7.14,2.46-12.6,2.46c-10.91,0-19.35-7.4-19.35-20.39C758.24,216.65,765.51,207.69,777.72,207.69z"
                  />
                  <path
                    fill="#fff"
                    d="M859.7,196.65h-15.97v38.18c0,1.82-0.26,3.64-0.91,4.94c-1.57,4.16-5.71,8.57-12.22,8.57
		c-8.43,0-11.81-6.75-11.81-17.27v-34.42h-15.97v37.15c0,20.65,10.51,27.53,21.94,27.53c11.44,0,17.67-6.49,20.4-10.91h0.38
		l0.78,9.48h13.9c-0.27-5.2-0.52-11.43-0.52-18.97V196.65z"
                  />
                  <path
                    fill="#fff"
                    d="M927.86,226c0-13.9-6.75-30.78-27.26-30.78c-20.26,0-30.91,16.49-30.91,34.02c0,19.35,12.08,31.96,32.6,31.96
		c9.09,0,16.63-1.69,22.07-4.03l-2.33-10.91c-4.94,1.69-10.13,2.86-17.54,2.86c-10.26,0-19.09-4.93-19.47-16.37h42.34
		C927.62,231.33,927.86,228.99,927.86,226z M885.02,221.59c0.64-6.49,4.8-15.45,14.67-15.45c10.65,0,13.24,9.61,13.11,15.45H885.02z
		"
                  />
                </g>
              </svg>